<svg width="288" height="288" fill="none" xmlns="http://www.w3.org/2000/svg">
  <path d="M-13-13h293c11.046 0 20 8.954 20 20v273c0 11.046-8.954 20-20 20H-13V-13Z" fill="#16161D"/>
  <rect opacity=".5" x="72.111" y="103.264" width="85.735" height="97.61" rx="8" transform="rotate(-16.796 72.111 103.264)" fill="#24242D"/>
  <rect x="129.718" y="61.995" width="89.058" height="105.009" rx="9.662" transform="rotate(13.554 129.718 61.995)" fill="#24242D" stroke="#16161D" stroke-width="3.323"/>
  <rect x="133.395" y="68.01" width="79.089" height="85.07" rx="7" transform="rotate(13.554 133.395 68.01)" fill="#16161D"/>
  <path d="m190.551 114.511-29.733-28.266-4.053 1.19-.993 4.119-3.065-2.906-4.053 1.19-.993 4.12-3.065-2.906-4.052 1.19-9.614 39.878 3.065 2.905 4.052-1.189-.993 4.119 3.065 2.906 4.053-1.19-.993 4.12 3.065 2.905 39.347-11.612.993-4.119-3.065-2.906 4.052-1.19.993-4.119-3.065-2.906 4.053-1.189.999-4.144Zm-51.535 15.199-4.053 1.19 8.621-35.759 3.066 2.906-7.634 31.663Zm8.221 12.867.993-4.12 31.236-9.208 3.065 2.905-35.294 10.423Zm1.98-8.215 5.653-23.449-3.065-2.906-6.646 27.569-4.053 1.19 8.627-35.784 17.478 16.62 4.053-1.189-20.544-19.526.994-4.12 26.667 25.362-23.131 6.829-.993 4.119 27.184-8.019 3.065 2.906-35.289 10.398Zm33.223-17.447-23.609-22.431.993-4.12 26.668 25.361-4.052 1.19Z" fill="#24242D"/>
</svg>
